<svg width="12" height="13" viewBox="0 0 12 13" fill="none" xmlns="http://www.w3.org/2000/svg">
<path d="M11.3784 5.23648L11.3785 5.23643C11.4852 5.12495 11.5302 4.9523 11.4788 4.78237L11.3784 5.23648ZM11.3784 5.23648L9.27616 7.43226L9.27598 7.43245C9.07478 7.64282 8.98897 7.93598 9.03404 8.21749C9.03404 8.2175 9.03404 8.21751 9.03404 8.21751L9.53022 11.3177L9.53033 11.3184C9.55295 11.4584 9.51845 11.5819 9.44369 11.6767L9.4432 11.6773C9.36631 11.7751 9.26693 11.8179 9.17597 11.8179C9.12634 11.8179 9.07579 11.8058 9.02136 11.7751L9.02106 11.7749L6.42237 10.311L6.4207 10.3101C6.16203 10.1657 5.84024 10.1637 5.57837 10.3108L5.57786 10.3111L2.9795 11.7749C2.97947 11.7749 2.97944 11.7749 2.97941 11.7749C2.84844 11.8486 2.66928 11.8202 2.55721 11.6775L2.55677 11.6769C2.48182 11.5818 2.44731 11.4586 2.46993 11.3182L2.47002 11.3177L2.96594 8.21767C2.96595 8.2176 2.96596 8.21752 2.96597 8.21745C3.01102 7.9362 2.92521 7.64281 2.72402 7.43245L2.72382 7.43224L0.62156 5.23672L0.62153 5.23669C0.514697 5.12513 0.469785 4.95235 0.521266 4.78232L0.0430611 4.63753L0.521172 4.78263C0.572035 4.61504 0.692532 4.52276 0.814364 4.50384L0.814541 4.50381L3.72007 4.05148L3.72024 4.05145C4.01945 4.00476 4.26251 3.80681 4.38348 3.5439C4.38354 3.54379 4.38359 3.54368 4.38364 3.54356M11.3784 5.23648L4.38364 3.54356M8.27993 4.05122L8.27976 4.05119C7.97999 4.00442 7.73733 3.80596 7.6166 3.54331M8.27993 4.05122L7.6166 3.54331M8.27993 4.05122L11.1853 4.50353M8.27993 4.05122L11.1853 4.50353M7.6166 3.54331L6.31776 0.72302L6.31771 0.722904C6.24758 0.570516 6.12109 0.5 6.00012 0.5C5.87947 0.5 5.75294 0.570439 5.68277 0.722904L5.68271 0.723037L4.38364 3.54356M7.6166 3.54331L4.38364 3.54356M11.1853 4.50353C11.3077 4.52263 11.4279 4.61483 11.4787 4.78206L11.1853 4.50353Z" fill="#9D2929" stroke="white"/>
</svg>
